<?xml version="1.0" standalone="no"?>
<!DOCTYPE svg PUBLIC "-//W3C//DTD SVG 20010904//EN"
 "http://www.w3.org/TR/2001/REC-SVG-20010904/DTD/svg10.dtd">
<svg version="1.0" xmlns="http://www.w3.org/2000/svg"
 width="1200.000000pt" height="1200.000000pt" viewBox="0 0 1200.000000 1200.000000"
 preserveAspectRatio="xMidYMid meet">
<metadata>
Created by potrace 1.14, written by Peter Selinger 2001-2017
</metadata>
<g transform="translate(0.000000,1200.000000) scale(0.100000,-0.100000)"
fill="#000000" stroke="none">
<path d="M5571 11965 c-58 -34 -89 -66 -143 -150 -117 -182 -143 -258 -142
-410 0 -85 5 -124 22 -171 121 -347 614 -638 1167 -689 33 -3 76 -7 95 -10 19
-2 55 -7 80 -9 233 -26 349 -42 435 -57 33 -7 69 -13 80 -14 35 -5 248 -56
305 -72 30 -9 60 -18 67 -19 35 -6 158 -52 231 -85 180 -83 297 -170 339 -253
14 -28 26 -52 27 -53 0 -1 19 -4 41 -7 77 -11 310 -46 340 -51 135 -24 382
-93 529 -149 l119 -45 -6 82 c-9 128 -33 231 -79 347 -21 53 -94 190 -107 200
-3 3 -19 23 -35 44 -38 51 -138 151 -201 201 -27 22 -51 43 -53 48 -2 4 -7 7
-12 7 -4 0 -35 18 -68 40 -66 44 -218 122 -322 165 -231 94 -620 192 -920 230
-14 2 -61 8 -105 14 -44 6 -100 12 -125 15 -25 3 -63 7 -85 10 -49 5 -144 14
-250 22 -44 3 -96 7 -115 9 -19 2 -84 6 -145 10 -228 14 -294 24 -425 67 -210
68 -434 217 -489 326 -53 104 -62 175 -35 272 8 30 16 60 18 65 1 6 8 20 15
33 18 33 22 62 8 62 -7 0 -32 -12 -56 -25z"/>
<path d="M9972 11649 c-236 -57 -455 -212 -614 -435 -115 -161 -168 -299 -173
-453 -6 -171 33 -257 237 -522 78 -102 110 -176 110 -259 0 -89 -36 -232 -77
-307 l-34 -62 22 -16 c12 -8 25 -15 30 -15 19 0 228 -110 313 -165 86 -56 244
-170 300 -217 15 -13 63 -54 106 -92 l79 -68 24 28 c42 48 171 246 193 294 40
90 50 118 66 187 85 377 -9 629 -312 836 -46 31 -85 57 -87 57 -9 0 -206 127
-256 166 -140 107 -203 221 -215 389 -13 174 40 297 188 434 53 49 204 173
252 207 11 7 17 17 13 21 -13 13 -97 9 -165 -8z"/>
<path d="M11786 10369 c-136 -32 -309 -122 -419 -218 -241 -209 -318 -349
-342 -621 -13 -152 -18 -190 -31 -248 -23 -105 -90 -197 -196 -270 -48 -33
-182 -82 -280 -102 -32 -6 -58 -17 -58 -23 0 -7 15 -23 33 -36 86 -65 324
-396 519 -721 58 -96 74 -117 85 -108 8 6 43 57 80 112 74 114 102 143 205
218 273 196 352 339 353 643 0 169 -3 191 -55 431 -57 259 -71 353 -68 462 2
100 33 222 71 277 25 36 136 166 156 181 8 6 11 16 7 22 -8 13 -6 13 -60 1z"/>
<path d="M5798 10145 c-2 -1 -88 -5 -193 -9 -104 -4 -208 -9 -230 -10 -69 -6
-167 -17 -250 -27 -217 -28 -344 -50 -590 -104 -490 -108 -1064 -339 -1547
-624 -202 -119 -517 -342 -669 -473 -15 -13 -38 -32 -52 -43 -63 -50 -182
-161 -302 -280 -156 -156 -205 -209 -314 -340 -46 -55 -92 -110 -102 -123 -43
-50 -160 -213 -236 -327 -237 -356 -435 -754 -569 -1150 -34 -100 -101 -322
-108 -361 -2 -11 -11 -49 -20 -85 -8 -35 -18 -75 -20 -89 -3 -14 -12 -56 -20
-95 -8 -38 -17 -88 -21 -110 -23 -149 -35 -239 -40 -295 -3 -36 -7 -81 -10
-100 -16 -117 -22 -526 -11 -690 14 -190 17 -230 32 -340 18 -142 22 -172 34
-235 5 -27 12 -61 14 -75 37 -202 113 -480 196 -715 75 -213 237 -569 329
-723 17 -29 31 -55 31 -58 0 -2 29 -52 66 -110 235 -381 442 -643 759 -959
357 -358 683 -607 1125 -862 408 -234 936 -448 1358 -548 9 -3 37 -9 62 -16
25 -6 56 -13 69 -15 12 -3 51 -11 85 -19 34 -8 79 -17 101 -20 22 -4 49 -9 60
-12 11 -3 31 -7 45 -8 14 -2 39 -5 55 -8 90 -16 124 -20 260 -36 219 -25 395
-35 630 -35 153 0 405 10 510 19 114 11 285 32 323 41 12 2 42 7 66 10 42 5
59 7 116 19 14 2 36 7 50 9 14 2 59 12 100 21 41 9 86 19 100 21 36 7 286 73
345 91 145 45 338 112 400 138 17 7 73 29 125 50 118 47 484 225 605 295 185
108 488 307 549 361 5 4 -54 -19 -130 -53 -278 -121 -733 -255 -1039 -307
-161 -27 -244 -41 -290 -47 -27 -3 -58 -8 -67 -9 -9 -2 -48 -6 -85 -10 -37 -3
-79 -8 -93 -10 -14 -2 -59 -7 -100 -10 -41 -4 -95 -8 -120 -10 -241 -19 -864
-25 -1047 -10 -48 4 -135 9 -193 10 -121 3 -323 14 -360 20 -14 2 -52 7 -85
10 -33 3 -85 10 -115 15 -30 5 -68 12 -85 14 -201 34 -546 130 -670 185 -11 5
-56 24 -100 41 -154 62 -439 208 -544 280 -15 9 -62 41 -106 71 -225 150 -368
270 -582 486 -78 79 -155 160 -170 180 -15 20 -38 48 -51 62 -35 38 -182 237
-234 316 -125 192 -238 401 -312 580 -26 61 -51 119 -56 130 -38 86 -136 412
-164 550 -31 150 -44 225 -51 285 -3 25 -7 56 -10 70 -27 173 -27 787 0 890 2
8 6 40 10 70 4 48 10 83 29 190 2 14 16 77 30 140 128 559 389 1090 764 1550
151 185 380 407 577 560 39 30 72 57 75 60 8 8 59 43 172 118 185 123 393 234
623 332 92 39 396 144 448 154 12 3 78 18 147 35 114 27 181 40 295 55 22 3
72 10 110 15 39 6 126 13 195 16 124 7 142 11 146 40 3 17 42 142 54 170 56
134 130 278 149 295 3 3 19 25 36 50 86 130 493 482 459 398 -2 -7 -24 -26
-47 -43 -117 -83 -274 -261 -353 -400 -83 -145 -170 -385 -194 -530 -14 -83
-24 -232 -24 -340 1 -106 12 -303 18 -314 2 -3 6 -29 10 -57 3 -28 13 -86 21
-130 9 -43 18 -90 21 -104 15 -81 96 -331 151 -465 55 -135 169 -357 254 -494
73 -117 229 -329 321 -435 108 -124 338 -345 473 -453 110 -88 385 -283 400
-283 2 0 28 -14 57 -31 218 -129 508 -253 750 -320 61 -17 117 -32 127 -34 9
-2 36 -8 61 -14 25 -5 61 -13 80 -16 19 -3 42 -8 50 -10 14 -4 60 -10 145 -20
161 -19 405 -23 540 -10 126 12 135 13 275 39 201 37 510 159 686 271 157 100
326 246 434 374 25 30 50 59 56 65 39 40 155 230 209 341 83 171 157 399 180
560 4 22 8 51 10 64 20 121 26 403 11 551 -5 47 -10 99 -11 115 -2 17 -8 59
-15 95 -7 36 -14 76 -16 89 -54 286 -214 694 -381 969 -85 141 -256 385 -305
436 -7 7 -33 38 -58 67 -56 69 -298 310 -369 369 -29 25 -59 50 -65 56 -6 6
-60 48 -121 94 -364 277 -761 474 -1180 584 -83 22 -189 46 -225 51 -8 2 -28
5 -45 8 -127 24 -222 31 -465 32 -272 2 -276 2 -350 29 -331 121 -805 234
-1140 271 -25 3 -58 7 -75 10 -16 3 -61 7 -100 11 -38 3 -88 7 -110 10 -22 2
-123 6 -225 10 -102 3 -193 7 -202 8 -9 2 -18 3 -20 1z"/>
<path d="M4415 7228 c-404 -45 -751 -348 -856 -748 -19 -73 -21 -89 -26 -227
-9 -241 56 -452 198 -641 42 -55 177 -192 190 -192 4 0 14 -6 21 -13 27 -26
137 -89 209 -118 266 -109 572 -98 823 27 110 55 175 103 267 194 113 112 180
217 239 373 73 190 73 482 2 677 -50 136 -154 300 -249 391 -217 208 -518 310
-818 277z"/>
<path d="M5008 2410 c-197 -35 -355 -153 -438 -325 -46 -96 -60 -161 -56 -275
4 -104 32 -195 84 -276 170 -262 502 -352 787 -213 157 77 285 247 312 416 18
108 1 247 -40 333 -69 148 -211 272 -365 320 -72 23 -215 33 -284 20z"/>
</g>
</svg>
