<?xml version="1.0" standalone="no"?>
<!DOCTYPE svg PUBLIC "-//W3C//DTD SVG 20010904//EN"
 "http://www.w3.org/TR/2001/REC-SVG-20010904/DTD/svg10.dtd">
<svg version="1.0" xmlns="http://www.w3.org/2000/svg"
 width="112.000000pt" height="112.000000pt" viewBox="0 0 112.000000 112.000000"
 preserveAspectRatio="xMidYMid meet">
<metadata>
Created by potrace 1.14, written by Peter Selinger 2001-2017
</metadata>
<g transform="translate(0.000000,112.000000) scale(0.100000,-0.100000)"
fill="#000000" stroke="none">
<path d="M29 1093 c-11 -26 -14 -69 -10 -135 0 -14 20 -50 42 -78 36 -46 38
-50 13 -31 -16 12 -39 23 -52 26 l-22 4 0 -403 0 -404 43 -6 c23 -3 56 -4 72
-1 36 6 105 37 105 47 0 18 39 27 69 17 30 -11 31 -13 31 -70 l0 -59 255 0
255 0 -5 48 c-3 26 -7 70 -10 97 -2 28 -7 67 -10 88 -9 55 11 45 26 -13 24
-94 108 -160 208 -163 86 -3 81 -27 81 419 l0 394 -23 0 c-13 0 -42 -16 -64
-35 -59 -50 -61 -43 -3 11 72 67 95 161 59 246 l-11 28 -178 0 -177 0 -19 -41
c-12 -27 -18 -61 -16 -95 l2 -54 -38 6 c-57 9 -120 11 -173 4 l-48 -6 1 56 c1
34 -6 70 -17 93 l-17 37 -179 0 -179 0 -11 -27z m101 -284 c0 -6 -4 -7 -10 -4
-5 3 -10 11 -10 16 0 6 5 7 10 4 6 -3 10 -11 10 -16z"/>
</g>
</svg>
